HIERARCHY
ROOT Hips
{
  OFFSET -32.5998 29.0326 120.673
  CHANNELS 6 Xposition Yposition Zposition Zrotation Xrotation Yrotation
  JOINT LeftUpLeg
  {
    OFFSET 8.64259 1.95398 -2.38835
    CHANNELS 3 Zrotation Xrotation Yrotation
    JOINT LeftLeg
    {
      OFFSET 43.7702 0 0
      CHANNELS 3 Zrotation Xrotation Yrotation
      JOINT LeftFoot
      {
        OFFSET 40.6238 0 0
        CHANNELS 3 Zrotation Xrotation Yrotation
        JOINT LeftToeBase
        {
          OFFSET 12.7242 0 0
          CHANNELS 3 Zrotation Xrotation Yrotation
          End Site
          {
            OFFSET 0 0 0
          }
        }
      }
    }
  }
  JOINT RightUpLeg
  {
    OFFSET -8.2249 1.95398 -2.59336
    CHANNELS 3 Zrotation Xrotation Yrotation
    JOINT RightLeg
    {
      OFFSET 43.5653 0 0
      CHANNELS 3 Zrotation Xrotation Yrotation
      JOINT RightFoot
      {
        OFFSET 40.6238 0 0
        CHANNELS 3 Zrotation Xrotation Yrotation
        JOINT RightToeBase
        {
          OFFSET 12.7242 0 0
          CHANNELS 3 Zrotation Xrotation Yrotation
          End Site
          {
            OFFSET 0 0 0
          }
        }
      }
    }
  }
  JOINT Spine
  {
    OFFSET 0.165834 0.87714 6.61349
    CHANNELS 3 Zrotation Xrotation Yrotation
    JOINT Spine1
    {
      OFFSET 7.38963 1.71661e-005 0
      CHANNELS 3 Zrotation Xrotation Yrotation
      JOINT Spine2
      {
        OFFSET 11.9445 1.14441e-005 0
        CHANNELS 3 Zrotation Xrotation Yrotation
        JOINT Spine3
        {
          OFFSET 14.7254 4.19617e-005 0
          CHANNELS 3 Zrotation Xrotation Yrotation
          JOINT Spine4
          {
            OFFSET 10.9679 0 0
            CHANNELS 3 Zrotation Xrotation Yrotation
            JOINT RightShoulder
            {
              OFFSET 2.46616 -1.6653 3.69651
              CHANNELS 3 Zrotation Xrotation Yrotation
              JOINT RightArm
              {
                OFFSET 13.0012 0 0
                CHANNELS 3 Zrotation Xrotation Yrotation
                JOINT RightForeArm
                {
                  OFFSET 28.7848 1.62311e-005 0
                  CHANNELS 3 Zrotation Xrotation Yrotation
                  JOINT RightHand
                  {
                    OFFSET 26.5688 1.62095e-005 0
                    CHANNELS 3 Zrotation Xrotation Yrotation
                    End Site
                    {
                      OFFSET 0 0 0
                    }
                  }
                }
              }
            }
            JOINT LeftShoulder
            {
              OFFSET 2.38034 -1.29275 -3.7523
              CHANNELS 3 Zrotation Xrotation Yrotation
              JOINT LeftArm
              {
                OFFSET 16.3182 6.07031e-005 0
                CHANNELS 3 Zrotation Xrotation Yrotation
                JOINT LeftForeArm
                {
                  OFFSET 27.0901 0 0
                  CHANNELS 3 Zrotation Xrotation Yrotation
                  JOINT LeftHand
                  {
                    OFFSET 24.5451 1.51738e-005 0
                    CHANNELS 3 Zrotation Xrotation Yrotation
                    End Site
                    {
                      OFFSET 0 0 0
                    }
                  }
                }
              }
            }
            JOINT Neck
            {
              OFFSET 5.0226 -0.0266342 0
              CHANNELS 3 Zrotation Xrotation Yrotation
              JOINT Head
              {
                OFFSET 6.69364 2.86102e-005 0
                CHANNELS 3 Zrotation Xrotation Yrotation
                End Site
                {
                  OFFSET 0 0 0
                }
              }
            }
          }
        }
      }
    }
  }
}
MOTION
Frames:	15
Frame Time:	0.0416667
43.6448 102.581 -268.476 -161.171 -84.775 -162.294 -174.842 -5.21956 87.6787 -8.42328 5.62975 0.397671 69.1585 5.14011 -1.67921 19.1223 -9.12794 9.36396 173.182 -3.8638 90.3961 -10.2243 -6.61764 0.219719 67.0871 -3.61644 0.06142 25.0131 1.57424 0.493003 0.192105 7.53189 -90.0802 11.8104 0.344401 -0.196403 0.139494 0.335416 -0.211372 -22.396 0.387503 -0.0838194 -2.38336 0.387496 -0.0838222 90.9786 -28.2284 -105.46 42.4911 -21.1484 -6.50311 -16.047 -19.646 -27.6683 -10.9781 -0.109013 -4.19086 -87.925 -49.9024 81.8188 -21.3503 27.0418 -15.7523 6.18606 -2.32037 -13.3329 1.01578 -0.170625 -7.07754 5.98682 -2.52042 -1.44934 -9.57734 -2.19052 -0.244968 
43.5406 102.586 -268.468 -161.49 -84.9329 -162.541 -174.904 -4.1747 87.8041 -10.1864 4.37463 0.66688 70.6295 5.3981 -2.55951 14.8175 -8.96346 5.0459 173.493 -3.65752 90.6623 -10.3149 -6.26635 0.0663938 66.6164 -3.51602 0.711251 25.5761 1.33572 0.43351 0.194651 7.52347 -90.0563 11.8272 0.360653 -0.150689 0.156288 0.353667 -0.166418 -22.3793 0.389268 -0.0353257 -2.36659 0.389268 -0.0353307 90.4831 -29.2315 -106.087 41.622 -21.2368 -6.55985 -16.0695 -20.0287 -27.4616 -10.6166 -0.133509 -3.87797 -87.6321 -49.6032 82.2065 -21.3778 27.715 -15.6369 6.13853 -2.79531 -13.264 0.162013 -0.168254 -6.95092 5.46704 -2.42225 -2.07602 -8.61971 -1.98395 -0.284923 
43.3978 102.58 -268.357 -158.487 -84.974 -159.373 -174.899 -4.03573 87.9864 -10.3011 3.90552 0.807254 70.9761 5.49871 -2.78193 13.78 -8.90513 4.06449 173.822 -3.54189 91.047 -10.5013 -5.8579 -0.0918504 66.9791 -3.78541 0.500757 25.617 1.36966 0.246686 0.242119 7.51726 -90.0833 11.8398 0.442394 -0.213136 0.168945 0.432579 -0.232407 -22.3668 0.485991 -0.0703251 -2.35415 0.485989 -0.0703301 90.4507 -28.898 -106.279 41.8365 -21.0236 -7.17797 -15.1816 -19.7894 -25.8239 -10.5281 -0.104522 -4.19794 -87.6149 -49.2291 82.1664 -21.8866 30.454 -15.4878 5.79575 -5.43056 -10.1916 -3.33363 -0.0877397 -3.63813 5.53881 -2.45244 -1.96924 -8.77217 -2.02866 -0.347096 
43.2976 102.558 -268.119 -158.776 -85.2394 -159.927 -175.046 -4.23511 87.7524 -9.70966 3.97351 0.830934 70.8791 5.59524 -2.69299 13.8639 -8.8736 4.08582 173.802 -3.29955 90.9259 -10.8722 -5.78493 -0.176459 67.3009 -3.94879 0.409998 25.4501 1.41845 0.343118 0.234624 7.47743 -90.0874 11.9195 0.425392 -0.22015 0.248559 0.415291 -0.238668 -22.2871 0.471883 -0.0821237 -2.27447 0.471888 -0.0821309 90.7694 -28.6424 -105.731 42.0481 -21.2319 -7.15722 -15.3267 -19.8966 -26.0791 -10.3821 -0.0866981 -4.39495 -87.7961 -49.8075 81.9959 -21.8283 29.996 -15.0024 5.79881 -5.46845 -10.3993 -3.00388 -0.0939719 -4.01553 5.57025 -2.3609 -1.03678 -9.03426 -2.07233 -1.18302 
43.0471 102.529 -267.786 -161.516 -85.3572 -162.664 -174.837 -4.41125 88.0216 -9.70996 4.44529 0.722869 70.8802 5.63992 -2.54522 13.9581 -8.45709 3.47539 173.839 -3.50811 91.0843 -10.9164 -5.47317 -0.124849 67.559 -4.09442 0.553177 25.5254 1.51407 -0.116326 0.209274 7.50673 -90.0421 11.8607 0.396383 -0.126331 0.189819 0.390436 -0.14366 -22.3458 0.416025 -0.00135575 -2.33318 0.416022 -0.00135614 90.2679 -29.1175 -106.564 41.426 -21.2915 -7.50189 -14.9103 -19.4965 -25.79 -11.2588 -0.109288 -4.21173 -87.6584 -48.9926 82.0579 -22.5456 29.1507 -15.0122 6.06404 -5.28181 -10.1104 -2.95311 -0.0917301 -4.13261 5.45444 -2.45083 -2.3308 -8.47995 -1.97621 -0.0389838 
42.637 102.486 -267.403 -162.072 -85.5064 -163.344 -174.814 -4.48524 88.1821 -9.80652 4.28425 0.807389 71.219 5.80217 -3.21771 14.1297 -8.48054 3.65772 173.793 -3.65308 91.1854 -10.9209 -5.424 -0.0124341 67.8204 -4.28075 0.297278 25.6439 1.42274 0.0140839 0.239426 7.49424 -90.0718 11.8858 0.442345 -0.190556 0.214958 0.43353 -0.20985 -22.3208 0.479162 -0.0487946 -2.30814 0.479161 -0.0488045 91.035 -28.5272 -105.234 42.1083 -21.5189 -7.63952 -14.9126 -19.4491 -25.5631 -9.98022 -0.04093 -4.91996 -87.7377 -50.0804 82.1317 -21.4199 29.4366 -15.0604 6.02182 -4.64184 -10.2411 -3.4191 -0.0887138 -4.96961 5.5172 -2.48831 -1.13273 -8.79718 -2.20176 -0.775837 
42.0375 102.408 -266.873 -160.513 -85.5759 -161.925 -174.172 -4.80625 88.8026 -9.64462 4.88283 0.235077 71.3885 6.30473 -2.99168 15.0882 -8.67082 4.80706 173.951 -3.62106 91.4422 -11.6129 -4.99934 -0.105217 68.5167 -4.52802 0.529284 25.1386 1.56613 0.322612 0.255039 7.51275 -90.0541 11.8487 0.481746 -0.159522 0.177854 0.474264 -0.180566 -22.358 0.507408 -0.00734992 -2.34534 0.507423 -0.00734794 90.7647 -28.3197 -105.862 41.8113 -21.5514 -7.62984 -14.5284 -19.1695 -25.3459 -11.0095 -0.140526 -3.85911 -87.6005 -50.6062 82.4294 -21.0497 28.6427 -14.5325 5.85172 -6.47197 -10.8621 -3.48575 -0.0866048 -5.32657 5.35544 -2.1652 -0.044644 -8.79495 -2.04634 -1.63721 
41.2311 102.251 -265.98 -165.027 -85.3465 -166.798 -173.606 -5.40189 89.327 -10.2678 5.62073 -0.163993 72.0631 7.09843 -3.04876 15.4828 -8.60717 5.02913 173.875 -4.39796 91.554 -11.9832 -4.66785 -0.0998303 69.3615 -4.9057 0.402467 25.4217 1.46573 0.221659 0.251552 7.57114 -89.9628 11.7317 0.517819 0.0198383 0.0609153 0.518182 -0.00297563 -22.475 0.487911 0.174546 -2.46238 0.487914 0.174548 90.7507 -28.4165 -105.854 41.8378 -21.5821 -7.38847 -15.2632 -19.8654 -26.2021 -10.5629 -0.0777655 -4.54386 -87.5961 -50.655 82.4441 -21.1025 27.0067 -12.854 5.90057 -8.34914 -11.9973 -2.95226 -0.085631 -5.48573 4.58911 -1.99204 0.508095 -8.16494 -1.9649 -2.16199 
40.3004 101.893 -265.22 -162.585 -84.9397 -165.021 -173.31 -5.42648 89.4762 -12.1081 4.7851 -0.398378 73.4397 8.34865 -4.03521 18.4826 -9.0253 8.54966 172.723 -3.82646 90.726 -14.9669 -6.32768 0.695125 71.1857 -5.74648 -0.359527 25.3499 1.42754 0.471516 0.324976 7.67612 -89.8882 11.5213 0.698832 0.151046 -0.149473 0.704807 0.120142 -22.6858 0.621123 0.354104 -2.67317 0.621131 0.354103 90.4279 -27.7281 -106.781 42.2216 -20.3296 -5.67373 -18.0492 -21.0328 -30.0384 -9.9592 -0.299655 -1.7595 -87.4949 -51.736 82.7776 -20.253 25.7335 -12.3268 6.01982 -8.30985 -11.8848 -3.1284 -0.0851961 -5.98551 4.03119 -1.657 2.05239 -7.87081 -1.88082 -2.84829 
39.4279 101.041 -264.786 -165.641 -85.5275 -168.522 -174.093 -1.64372 89.6497 -19.3434 3.65934 0.268849 74.8566 9.66976 -4.31348 23.1529 -8.24734 11.9567 171.998 -2.06957 90.3688 -18.2717 -5.94734 1.37344 73.8663 -6.64683 0.319661 26.321 0.750919 1.32486 0.397406 7.71571 -89.8119 11.4413 0.878583 0.285726 -0.229382 0.890307 0.246774 -22.7661 0.752088 0.536575 -2.75348 0.752089 0.536579 89.8837 -27.6243 -107.939 41.0503 -20.7326 -7.11877 -15.9597 -20.7359 -26.7029 -11.0714 -0.268047 -2.46839 -87.4233 -52.0019 82.9271 -19.924 24.1276 -11.0215 6.44766 -8.29874 -12.8694 -2.81533 -0.0852831 -5.75623 3.51484 -1.61246 2.78409 -6.99081 -1.97517 -2.84489 
38.5755 100.637 -264.203 172.526 -85.3416 169.991 -174.774 7.53996 88.7652 -35.7419 4.07504 1.20451 73.9776 7.88335 -4.19191 23.4182 -7.39638 10.6415 171.665 -3.24742 90.8818 -17.7285 -5.0033 2.19765 74.5679 -7.14983 -0.290989 26.164 0.610053 2.0917 0.381531 7.88007 -89.9523 11.115 0.781546 0.0167401 -0.5557 0.78153 -0.0176816 -23.0928 0.740372 0.250871 -3.08018 0.740376 0.250863 90.2666 -26.1675 -107.76 40.7847 -20.9856 -7.7548 -15.5823 -19.3825 -26.8835 -11.6358 -0.212436 -3.17114 -87.0176 -53.7043 83.789 -19.314 22.5658 -10.0528 6.67182 -8.97371 -13.9184 -2.78971 -0.0863068 -5.63508 4.03986 -1.22051 4.64897 -7.2468 -1.88998 -3.61112 
37.9661 100.655 -263.115 170.98 -85.9296 168.19 -174.15 14.6134 88.8067 -42.1305 3.15358 0.238873 75.4182 7.66648 -6.17838 19.0479 -9.8485 10.5439 172.067 -3.21312 91.3393 -17.8366 -5.09372 1.90392 73.598 -6.28238 -0.21269 28.6924 0.0714581 -0.126758 0.701417 7.93769 -89.8583 10.9999 1.46201 0.141333 -0.670251 1.46682 0.0768334 -23.211 1.35194 0.574276 -3.19838 1.35194 0.574264 89.8497 -27.6566 -108.006 39.2183 -21.0749 -8.45226 -15.2847 -18.5231 -26.6624 -10.3298 -0.109299 -4.18288 -87.244 -51.6354 83.126 -22.2782 20.2277 -7.35556 7.53042 -7.79813 -16.0713 -2.73757 -0.0879497 -4.80604 2.51609 -2.02404 1.75428 -5.64363 -2.23559 -2.57405 
37.9108 100.672 -260.956 172.42 -85.7964 167.725 -174.543 16.7712 85.3801 -33.7225 5.63841 -1.51482 70.8745 5.85062 -3.03213 21.8142 -8.13787 10.3106 171.457 -4.95176 89.6145 -17.17 -5.30957 1.1765 74.6499 -7.36732 -0.891071 28.3169 0.0290274 0.719843 0.79333 8.08599 -89.6077 10.6975 1.76066 0.618821 -0.972339 1.78619 0.540708 -23.5137 1.49328 1.11943 -3.50102 1.49327 1.11944 89.4607 -28.0295 -108.634 38.3524 -21.7175 -9.88734 -15.5982 -17.2327 -27.8648 -9.39083 -0.0547447 -4.73484 -87.256 -51.1774 83.0378 -23.1278 20.5934 -4.06005 7.27224 -8.0414 -17.0674 -3.52851 -0.0899062 -3.97585 2.65937 -2.27098 1.22971 -6.22927 -2.38021 -2.49216 
38.1251 100.372 -258.119 166.801 -86.5975 161.568 -176.439 18.4405 83.1791 -19.7372 3.81199 -1.74054 66.4773 4.13493 -1.01399 18.3049 -8.521 7.47922 171.25 -6.51651 88.9427 -15.8772 -3.87936 0.79345 75.6669 -7.75771 0.445834 29.0932 -0.321609 0.743676 0.915645 8.07199 -89.5249 10.7236 2.0424 0.756855 -0.945959 2.07373 0.666199 -23.4891 1.7205 1.33581 -3.47649 1.72051 1.33581 89.3811 -28.1962 -108.725 37.6251 -21.5728 -10.845 -16.7862 -16.505 -30.3437 -9.74879 0.0100548 -5.57128 -87.3054 -50.7289 82.8901 -24.4291 20.8648 -2.68113 7.10365 -7.94755 -14.0144 -3.54317 -0.0917791 -4.47486 2.51737 -2.51333 1.03204 -5.74432 -2.59442 -2.61075 
38.2538 99.5895 -253.891 168.228 -86.6535 163.254 -177.587 19.287 82.3647 -10.6279 1.55666 -2.23536 65.2059 3.80546 -0.940556 16.8491 -9.02058 6.98542 171.102 -10.6283 89.0733 -13.195 -4.21732 0.554485 76.0063 -8.93637 -0.827887 31.6441 -1.44726 0.76516 1.00248 8.09305 -89.592 10.6827 2.18435 0.611612 -0.986477 2.20915 0.514841 -23.5322 1.89952 1.24001 -3.51957 1.89952 1.24 89.1574 -27.7739 -109.36 36.6576 -21.5806 -12.0879 -17.0226 -17.6636 -30.0833 -10.4797 -0.0885561 -4.35621 -87.6039 -51.8149 82.6302 -25.2392 20.3433 -0.346878 6.79613 -9.20031 -13.7498 -2.45236 -0.0935765 -4.08019 2.60754 -2.5249 1.85588 -6.01954 -2.71764 -3.29625 
